<svg xmlns="http://www.w3.org/2000/svg" width="64" height="64" viewBox="0 0 64 64"><title>logo</title><g id="1aae417d-a976-47ff-b0eb-d618f34ef538" data-name="Layer 1"><rect width="64" height="64" fill="#fff"/></g><g id="600a6eed-07b3-47f5-af5b-d4b1de403cad" data-name="Layer 2"><path d="M8.52,6.88H25.64v4.83H16.52v4h8.35v4.82H16.52v4.36h9.25v4.82H8.52Z"/><path d="M43.36,6.58c8.61,0,12.43,5.83,12.43,11.73S52.07,30,43.36,30c-8.24,0-12.43-5.4-12.43-11.73C30.93,12.24,34.85,6.58,43.36,6.58Zm0,16.75c2.71,0,4.42-1.94,4.42-5s-1.71-5-4.42-5-4.42,1.94-4.42,5S40.61,23.33,43.36,23.33Z"/><path d="M8.21,34.57h8V51.69h9v5.73h-17Z"/><path d="M31.75,34.57h8V51.69h9v5.73h-17Z"/></g></svg>